<?xml version="1.0" encoding="UTF-8" standalone="no"?>
<!DOCTYPE svg PUBLIC "-//W3C//DTD SVG 1.1//EN"
 "http://www.w3.org/Graphics/SVG/1.1/DTD/svg11.dtd">
<!-- Generated by graphviz version 2.44.0 (0)
 -->
<!-- Title: GitRepos Pages: 1 -->
<svg width="534pt" height="526pt"
 viewBox="0.00 0.00 534.22 526.46" xmlns="http://www.w3.org/2000/svg" xmlns:xlink="http://www.w3.org/1999/xlink">
<g id="graph0" class="graph" transform="scale(1 1) rotate(0) translate(4 522.46)">
<title>GitRepos</title>
<!-- ncep -->
<g id="node1" class="node">
<title>ncep</title>
<ellipse fill="blue" stroke="black" cx="299.35" cy="-123" rx="54" ry="54"/>
<text text-anchor="middle" x="299.35" y="-119.3" font-family="Helvetica,sans-Serif" font-size="14.00" fill="white">NOAA&#45;NCEP</text>
</g>
<!-- ncar -->
<g id="node2" class="node">
<title>ncar</title>
<ellipse fill="mediumaquamarine" stroke="black" cx="139.2" cy="-175.04" rx="54" ry="54"/>
<text text-anchor="middle" x="139.2" y="-171.34" font-family="Helvetica,sans-Serif" font-size="14.00" fill="white">NCAR</text>
</g>
<!-- ncep&#45;&gt;ncar -->
<g id="edge1" class="edge">
<title>ncep&#45;&gt;ncar</title>
<path fill="none" stroke="black" d="M238.18,-142.88C225.81,-146.9 212.8,-151.12 200.42,-155.15"/>
<polygon fill="black" stroke="black" points="239.36,-146.17 247.79,-139.75 237.2,-139.52 239.36,-146.17"/>
<polygon fill="black" stroke="black" points="199.08,-151.9 190.66,-158.32 201.25,-158.56 199.08,-151.9"/>
</g>
<!-- gfdl -->
<g id="node3" class="node">
<title>gfdl</title>
<ellipse fill="deepskyblue" stroke="black" cx="139.2" cy="-343.43" rx="54" ry="54"/>
<text text-anchor="middle" x="139.2" y="-339.73" font-family="Helvetica,sans-Serif" font-size="14.00" fill="white">NOAA&#45;GFDL</text>
</g>
<!-- ncar&#45;&gt;gfdl -->
<g id="edge2" class="edge">
<title>ncar&#45;&gt;gfdl</title>
<path fill="none" stroke="black" d="M139.2,-239.35C139.2,-252.36 139.2,-266.04 139.2,-279.05"/>
<polygon fill="black" stroke="black" points="142.7,-239.24 139.2,-229.24 135.7,-239.24 142.7,-239.24"/>
<polygon fill="black" stroke="black" points="135.7,-279.32 139.2,-289.32 142.7,-279.32 135.7,-279.32"/>
</g>
<!-- esmg -->
<g id="node4" class="node">
<title>esmg</title>
<ellipse fill="red" stroke="black" cx="299.35" cy="-395.46" rx="54" ry="54"/>
<text text-anchor="middle" x="299.35" y="-399.26" font-family="Helvetica,sans-Serif" font-size="14.00" fill="white">Rutgers</text>
<text text-anchor="middle" x="299.35" y="-384.26" font-family="Helvetica,sans-Serif" font-size="14.00" fill="white">ESMG</text>
</g>
<!-- gfdl&#45;&gt;esmg -->
<g id="edge3" class="edge">
<title>gfdl&#45;&gt;esmg</title>
<path fill="none" stroke="black" d="M200.36,-363.3C212.74,-367.32 225.75,-371.55 238.13,-375.57"/>
<polygon fill="black" stroke="black" points="201.34,-359.94 190.75,-360.18 199.18,-366.6 201.34,-359.94"/>
<polygon fill="black" stroke="black" points="237.3,-378.98 247.89,-378.74 239.46,-372.32 237.3,-378.98"/>
</g>
<!-- fsu -->
<g id="node5" class="node">
<title>fsu</title>
<ellipse fill="orange" stroke="black" cx="398.32" cy="-259.23" rx="54" ry="54"/>
<text text-anchor="middle" x="398.32" y="-255.53" font-family="Helvetica,sans-Serif" font-size="14.00" fill="white">FSU/Navy</text>
</g>
<!-- esmg&#45;&gt;fsu -->
<g id="edge4" class="edge">
<title>esmg&#45;&gt;fsu</title>
<path fill="none" stroke="black" d="M337.15,-343.43C344.79,-332.91 352.84,-321.84 360.49,-311.31"/>
<polygon fill="black" stroke="black" points="334.25,-341.46 331.21,-351.61 339.92,-345.57 334.25,-341.46"/>
<polygon fill="black" stroke="black" points="363.47,-313.15 366.52,-303 357.81,-309.04 363.47,-313.15"/>
</g>
<!-- fsu&#45;&gt;ncep -->
<g id="edge5" class="edge">
<title>fsu&#45;&gt;ncep</title>
<path fill="none" stroke="black" d="M360.52,-207.21C352.87,-196.68 344.83,-185.61 337.18,-175.08"/>
<polygon fill="black" stroke="black" points="357.75,-209.35 366.46,-215.38 363.41,-205.23 357.75,-209.35"/>
<polygon fill="black" stroke="black" points="339.86,-172.81 331.15,-166.77 334.19,-176.92 339.86,-172.81"/>
</g>
<!-- u_ncep -->
<g id="node6" class="node">
<title>u_ncep</title>
<ellipse fill="blue" stroke="black" cx="330.23" cy="-27.95" rx="27.9" ry="27.9"/>
<text text-anchor="middle" x="330.23" y="-24.25" font-family="Helvetica,sans-Serif" font-size="14.00" fill="white">user</text>
</g>
<!-- u_ncep&#45;&gt;ncep -->
<g id="edge6" class="edge">
<title>u_ncep&#45;&gt;ncep</title>
<path fill="none" stroke="black" d="M321.55,-54.68C320.8,-56.99 320.02,-59.37 319.23,-61.81"/>
<polygon fill="black" stroke="black" points="315.87,-60.83 316.11,-71.42 322.52,-63 315.87,-60.83"/>
</g>
<!-- u1_ncar -->
<g id="node7" class="node">
<title>u1_ncar</title>
<ellipse fill="mediumaquamarine" stroke="black" cx="27.95" cy="-172.34" rx="27.9" ry="27.9"/>
<text text-anchor="middle" x="27.95" y="-168.64" font-family="Helvetica,sans-Serif" font-size="14.00" fill="white">user</text>
</g>
<!-- u1_ncar&#45;&gt;ncar -->
<g id="edge7" class="edge">
<title>u1_ncar&#45;&gt;ncar</title>
<path fill="none" stroke="black" d="M56.02,-173.02C61.85,-173.17 68.22,-173.32 74.76,-173.48"/>
<polygon fill="black" stroke="black" points="75.03,-176.99 85.11,-173.73 75.2,-169.99 75.03,-176.99"/>
</g>
<!-- u2_ncar -->
<g id="node8" class="node">
<title>u2_ncar</title>
<ellipse fill="mediumaquamarine" stroke="black" cx="102.26" cy="-70.06" rx="27.9" ry="27.9"/>
<text text-anchor="middle" x="102.26" y="-66.36" font-family="Helvetica,sans-Serif" font-size="14.00" fill="white">user</text>
</g>
<!-- u2_ncar&#45;&gt;ncar -->
<g id="edge8" class="edge">
<title>u2_ncar&#45;&gt;ncar</title>
<path fill="none" stroke="black" d="M111.58,-96.55C113.52,-102.05 115.63,-108.06 117.8,-114.23"/>
<polygon fill="black" stroke="black" points="114.62,-115.73 121.24,-124 121.22,-113.41 114.62,-115.73"/>
</g>
<!-- u1_gfdl -->
<g id="node9" class="node">
<title>u1_gfdl</title>
<ellipse fill="deepskyblue" stroke="black" cx="102.26" cy="-448.4" rx="27.9" ry="27.9"/>
<text text-anchor="middle" x="102.26" y="-444.7" font-family="Helvetica,sans-Serif" font-size="14.00" fill="white">user</text>
</g>
<!-- u1_gfdl&#45;&gt;gfdl -->
<g id="edge9" class="edge">
<title>u1_gfdl&#45;&gt;gfdl</title>
<path fill="none" stroke="black" d="M111.58,-421.91C113.52,-416.41 115.63,-410.4 117.8,-404.23"/>
<polygon fill="black" stroke="black" points="121.22,-405.06 121.24,-394.46 114.62,-402.73 121.22,-405.06"/>
</g>
<!-- u2_gfdl -->
<g id="node10" class="node">
<title>u2_gfdl</title>
<ellipse fill="deepskyblue" stroke="black" cx="27.95" cy="-346.12" rx="27.9" ry="27.9"/>
<text text-anchor="middle" x="27.95" y="-342.42" font-family="Helvetica,sans-Serif" font-size="14.00" fill="white">user</text>
</g>
<!-- u2_gfdl&#45;&gt;gfdl -->
<g id="edge10" class="edge">
<title>u2_gfdl&#45;&gt;gfdl</title>
<path fill="none" stroke="black" d="M56.02,-345.44C61.85,-345.3 68.22,-345.14 74.76,-344.99"/>
<polygon fill="black" stroke="black" points="75.2,-348.48 85.11,-344.74 75.03,-341.48 75.2,-348.48"/>
</g>
<!-- u_esmg -->
<g id="node11" class="node">
<title>u_esmg</title>
<ellipse fill="red" stroke="black" cx="330.23" cy="-490.52" rx="27.9" ry="27.9"/>
<text text-anchor="middle" x="330.23" y="-486.82" font-family="Helvetica,sans-Serif" font-size="14.00" fill="white">user</text>
</g>
<!-- u_esmg&#45;&gt;esmg -->
<g id="edge11" class="edge">
<title>u_esmg&#45;&gt;esmg</title>
<path fill="none" stroke="black" d="M321.55,-463.79C320.8,-461.48 320.02,-459.09 319.23,-456.65"/>
<polygon fill="black" stroke="black" points="322.52,-455.47 316.11,-447.04 315.87,-457.63 322.52,-455.47"/>
</g>
<!-- u_fsu -->
<g id="node12" class="node">
<title>u_fsu</title>
<ellipse fill="orange" stroke="black" cx="498.27" cy="-259.23" rx="27.9" ry="27.9"/>
<text text-anchor="middle" x="498.27" y="-255.53" font-family="Helvetica,sans-Serif" font-size="14.00" fill="white">user</text>
</g>
<!-- u_fsu&#45;&gt;fsu -->
<g id="edge12" class="edge">
<title>u_fsu&#45;&gt;fsu</title>
<path fill="none" stroke="black" d="M470.16,-259.23C467.74,-259.23 465.23,-259.23 462.66,-259.23"/>
<polygon fill="black" stroke="black" points="462.56,-255.73 452.56,-259.23 462.56,-262.73 462.56,-255.73"/>
</g>
</g>
</svg>
