<?xml version="1.0" encoding="UTF-8" standalone="no"?>
<!DOCTYPE svg PUBLIC "-//W3C//DTD SVG 1.1//EN"
 "http://www.w3.org/Graphics/SVG/1.1/DTD/svg11.dtd">
<!-- Generated by graphviz version 2.44.0 (0)
 -->
<!-- Title: testing Pages: 1 -->
<svg width="535pt" height="428pt"
 viewBox="0.00 0.00 535.00 427.74" xmlns="http://www.w3.org/2000/svg" xmlns:xlink="http://www.w3.org/1999/xlink">
<g id="graph0" class="graph" transform="scale(1 1) rotate(0) translate(4 423.74)">
<title>testing</title>
<g id="clust5" class="cluster">
<title>cluster_build</title>
<polygon fill="grey" stroke="black" points="74,-283 74,-358 440,-358 440,-283 74,-283"/>
<text text-anchor="middle" x="406.5" y="-342.8" font-family="Helvetica,sans-Serif" font-size="14.00" fill="white">Compile</text>
</g>
<g id="clust6" class="cluster">
<title>cluster_test</title>
<polygon fill="grey" stroke="black" points="8,-136 8,-211 519,-211 519,-136 8,-136"/>
<text text-anchor="middle" x="482" y="-195.8" font-family="Helvetica,sans-Serif" font-size="14.00" fill="white">Run tests</text>
</g>
<!-- submit -->
<g id="node1" class="node">
<title>submit</title>
<ellipse fill="lightgrey" stroke="black" cx="250" cy="-392.87" rx="65.11" ry="26.74"/>
<text text-anchor="middle" x="250" y="-396.67" font-family="Helvetica,sans-Serif" font-size="14.00">Submit to CI</text>
<text text-anchor="middle" x="250" y="-381.67" font-family="Helvetica,sans-Serif" font-size="14.00">(Travis)</text>
</g>
<!-- build1 -->
<g id="node2" class="node">
<title>build1</title>
<ellipse fill="lightgrey" stroke="black" cx="379" cy="-309" rx="53.09" ry="18"/>
<text text-anchor="middle" x="379" y="-305.3" font-family="Helvetica,sans-Serif" font-size="14.00">Symmetric</text>
</g>
<!-- submit&#45;&gt;build1 -->
<g id="edge1" class="edge">
<title>submit&#45;&gt;build1</title>
<path fill="none" stroke="black" d="M292.14,-372.11C300.54,-367.75 309.18,-362.94 317,-358 329.08,-350.37 341.67,-340.93 352.33,-332.44"/>
<polygon fill="black" stroke="black" points="354.85,-334.91 360.42,-325.9 350.44,-329.47 354.85,-334.91"/>
</g>
<!-- build2 -->
<g id="node3" class="node">
<title>build2</title>
<ellipse fill="lightgrey" stroke="black" cx="250" cy="-309" rx="57.69" ry="18"/>
<text text-anchor="middle" x="250" y="-305.3" font-family="Helvetica,sans-Serif" font-size="14.00">Asymmetric</text>
</g>
<!-- submit&#45;&gt;build2 -->
<g id="edge2" class="edge">
<title>submit&#45;&gt;build2</title>
<path fill="none" stroke="black" d="M250,-365.97C250,-356.87 250,-346.63 250,-337.42"/>
<polygon fill="black" stroke="black" points="253.5,-337.21 250,-327.21 246.5,-337.21 253.5,-337.21"/>
</g>
<!-- build3 -->
<g id="node4" class="node">
<title>build3</title>
<ellipse fill="lightgrey" stroke="black" cx="128" cy="-309" rx="46.29" ry="18"/>
<text text-anchor="middle" x="128" y="-305.3" font-family="Helvetica,sans-Serif" font-size="14.00">OpenMP</text>
</g>
<!-- submit&#45;&gt;build3 -->
<g id="edge3" class="edge">
<title>submit&#45;&gt;build3</title>
<path fill="none" stroke="black" d="M207.63,-372.47C199.25,-368.08 190.68,-363.17 183,-358 172.16,-350.7 161.13,-341.49 151.82,-333.1"/>
<polygon fill="black" stroke="black" points="154.17,-330.5 144.45,-326.3 149.42,-335.65 154.17,-330.5"/>
</g>
<!-- build_verify -->
<g id="node5" class="node">
<title>build_verify</title>
<polygon fill="lightgrey" stroke="black" points="295,-255 205,-255 205,-219 295,-219 295,-255"/>
<text text-anchor="middle" x="250" y="-233.3" font-family="Helvetica,sans-Serif" font-size="14.00">Verify builds</text>
</g>
<!-- build1&#45;&gt;build_verify -->
<g id="edge4" class="edge">
<title>build1&#45;&gt;build_verify</title>
<path fill="none" stroke="black" d="M351.96,-293.33C334.15,-283.66 310.5,-270.83 290.47,-259.96"/>
<polygon fill="black" stroke="black" points="292.01,-256.82 281.55,-255.12 288.67,-262.97 292.01,-256.82"/>
</g>
<!-- build2&#45;&gt;build_verify -->
<g id="edge5" class="edge">
<title>build2&#45;&gt;build_verify</title>
<path fill="none" stroke="black" d="M250,-290.7C250,-282.98 250,-273.71 250,-265.11"/>
<polygon fill="black" stroke="black" points="253.5,-265.1 250,-255.1 246.5,-265.1 253.5,-265.1"/>
</g>
<!-- build3&#45;&gt;build_verify -->
<g id="edge6" class="edge">
<title>build3&#45;&gt;build_verify</title>
<path fill="none" stroke="black" d="M152.98,-293.67C169.83,-284 192.4,-271.05 211.52,-260.08"/>
<polygon fill="black" stroke="black" points="213.38,-263.04 220.32,-255.03 209.9,-256.97 213.38,-263.04"/>
</g>
<!-- test1 -->
<g id="node6" class="node">
<title>test1</title>
<ellipse fill="lightgrey" stroke="black" cx="448" cy="-162" rx="63.09" ry="18"/>
<text text-anchor="middle" x="448" y="-158.3" font-family="Helvetica,sans-Serif" font-size="14.00">Grid Memory</text>
</g>
<!-- build_verify&#45;&gt;test1 -->
<g id="edge7" class="edge">
<title>build_verify&#45;&gt;test1</title>
<path fill="none" stroke="black" d="M295.27,-231.38C319.84,-227.81 350.34,-221.61 376,-211 391.57,-204.57 407.31,-194.56 420.09,-185.34"/>
<polygon fill="black" stroke="black" points="422.49,-187.92 428.42,-179.15 418.31,-182.31 422.49,-187.92"/>
</g>
<!-- test2 -->
<g id="node7" class="node">
<title>test2</title>
<ellipse fill="lightgrey" stroke="black" cx="310" cy="-162" rx="57.39" ry="18"/>
<text text-anchor="middle" x="310" y="-158.3" font-family="Helvetica,sans-Serif" font-size="14.00">Dimensions</text>
</g>
<!-- build_verify&#45;&gt;test2 -->
<g id="edge8" class="edge">
<title>build_verify&#45;&gt;test2</title>
<path fill="none" stroke="black" d="M264.22,-218.7C271.88,-209.38 281.45,-197.74 289.86,-187.5"/>
<polygon fill="black" stroke="black" points="292.65,-189.62 296.3,-179.67 287.24,-185.18 292.65,-189.62"/>
</g>
<!-- test3 -->
<g id="node8" class="node">
<title>test3</title>
<ellipse fill="lightgrey" stroke="black" cx="191" cy="-162" rx="43.59" ry="18"/>
<text text-anchor="middle" x="191" y="-158.3" font-family="Helvetica,sans-Serif" font-size="14.00">Rotation</text>
</g>
<!-- build_verify&#45;&gt;test3 -->
<g id="edge9" class="edge">
<title>build_verify&#45;&gt;test3</title>
<path fill="none" stroke="black" d="M236.02,-218.7C228.38,-209.25 218.81,-197.4 210.45,-187.07"/>
<polygon fill="black" stroke="black" points="213.08,-184.75 204.07,-179.18 207.64,-189.15 213.08,-184.75"/>
</g>
<!-- test4 -->
<g id="node9" class="node">
<title>test4</title>
<ellipse fill="lightgrey" stroke="black" cx="73" cy="-162" rx="56.59" ry="18"/>
<text text-anchor="middle" x="73" y="-158.3" font-family="Helvetica,sans-Serif" font-size="14.00">Initialization</text>
</g>
<!-- build_verify&#45;&gt;test4 -->
<g id="edge10" class="edge">
<title>build_verify&#45;&gt;test4</title>
<path fill="none" stroke="black" d="M204.74,-230.3C183.78,-226.57 158.94,-220.55 138,-211 123.93,-204.58 109.92,-194.79 98.54,-185.72"/>
<polygon fill="black" stroke="black" points="100.69,-182.96 90.74,-179.3 96.24,-188.36 100.69,-182.96"/>
</g>
<!-- verify_results -->
<g id="node10" class="node">
<title>verify_results</title>
<polygon fill="lightgrey" stroke="black" points="297.5,-108 202.5,-108 202.5,-72 297.5,-72 297.5,-108"/>
<text text-anchor="middle" x="250" y="-86.3" font-family="Helvetica,sans-Serif" font-size="14.00">Verify results</text>
</g>
<!-- test1&#45;&gt;verify_results -->
<g id="edge11" class="edge">
<title>test1&#45;&gt;verify_results</title>
<path fill="none" stroke="black" d="M409.82,-147.5C380.67,-137.2 340.04,-122.83 307.04,-111.16"/>
<polygon fill="black" stroke="black" points="308.1,-107.83 297.5,-107.79 305.77,-114.43 308.1,-107.83"/>
</g>
<!-- test2&#45;&gt;verify_results -->
<g id="edge12" class="edge">
<title>test2&#45;&gt;verify_results</title>
<path fill="none" stroke="black" d="M295.78,-144.41C288.53,-135.95 279.55,-125.47 271.47,-116.05"/>
<polygon fill="black" stroke="black" points="274.12,-113.76 264.95,-108.45 268.8,-118.32 274.12,-113.76"/>
</g>
<!-- test3&#45;&gt;verify_results -->
<g id="edge13" class="edge">
<title>test3&#45;&gt;verify_results</title>
<path fill="none" stroke="black" d="M204.68,-144.76C211.92,-136.18 220.95,-125.46 229.05,-115.86"/>
<polygon fill="black" stroke="black" points="231.8,-118.03 235.57,-108.12 226.45,-113.51 231.8,-118.03"/>
</g>
<!-- test4&#45;&gt;verify_results -->
<g id="edge14" class="edge">
<title>test4&#45;&gt;verify_results</title>
<path fill="none" stroke="black" d="M107.13,-147.5C132.67,-137.4 168.08,-123.4 197.25,-111.86"/>
<polygon fill="black" stroke="black" points="198.87,-114.98 206.88,-108.05 196.3,-108.47 198.87,-114.98"/>
</g>
<!-- validate -->
<g id="node11" class="node">
<title>validate</title>
<ellipse fill="lightgrey" stroke="black" cx="250" cy="-18" rx="71.49" ry="18"/>
<text text-anchor="middle" x="250" y="-14.3" font-family="Helvetica,sans-Serif" font-size="14.00">Local validation</text>
</g>
<!-- verify_results&#45;&gt;validate -->
<g id="edge15" class="edge">
<title>verify_results&#45;&gt;validate</title>
<path fill="none" stroke="black" d="M250,-71.7C250,-63.98 250,-54.71 250,-46.11"/>
<polygon fill="black" stroke="black" points="253.5,-46.1 250,-36.1 246.5,-46.1 253.5,-46.1"/>
</g>
</g>
</svg>
