<?xml version="1.0" encoding="UTF-8" standalone="no"?>
<!DOCTYPE svg PUBLIC "-//W3C//DTD SVG 1.1//EN"
 "http://www.w3.org/Graphics/SVG/1.1/DTD/svg11.dtd">
<!-- Generated by graphviz version 2.44.0 (0)
 -->
<!-- Title: mom_pr Pages: 1 -->
<svg width="155pt" height="348pt"
 viewBox="0.00 0.00 154.90 348.00" xmlns="http://www.w3.org/2000/svg" xmlns:xlink="http://www.w3.org/1999/xlink">
<g id="graph0" class="graph" transform="scale(1 1) rotate(0) translate(4 344)">
<title>mom_pr</title>
<!-- master -->
<g id="node1" class="node">
<title>master</title>
<ellipse fill="lightgrey" stroke="black" cx="40.95" cy="-322" rx="38.19" ry="18"/>
<text text-anchor="middle" x="40.95" y="-318.3" font-family="Helvetica,sans-Serif" font-size="14.00">master</text>
</g>
<!-- merged -->
<g id="node2" class="node">
<title>merged</title>
<ellipse fill="lightgrey" stroke="black" cx="40.95" cy="-18" rx="40.89" ry="18"/>
<text text-anchor="middle" x="40.95" y="-14.3" font-family="Helvetica,sans-Serif" font-size="14.00">merged</text>
</g>
<!-- master&#45;&gt;merged -->
<g id="edge1" class="edge">
<title>master&#45;&gt;merged</title>
<path fill="none" stroke="black" d="M40.95,-303.9C40.95,-253.87 40.95,-107.5 40.95,-46.34"/>
<polygon fill="black" stroke="black" points="44.45,-46.29 40.95,-36.29 37.45,-46.29 44.45,-46.29"/>
</g>
<!-- fork -->
<g id="node4" class="node">
<title>fork</title>
<ellipse fill="lightgrey" stroke="black" cx="107.95" cy="-250" rx="27" ry="18"/>
<text text-anchor="middle" x="107.95" y="-246.3" font-family="Helvetica,sans-Serif" font-size="14.00">fork</text>
</g>
<!-- master&#45;&gt;fork -->
<g id="edge2" class="edge">
<title>master&#45;&gt;fork</title>
<path fill="none" stroke="black" d="M56.15,-305.12C65.13,-295.73 76.65,-283.7 86.54,-273.36"/>
<polygon fill="black" stroke="black" points="89.33,-275.51 93.72,-265.86 84.28,-270.67 89.33,-275.51"/>
</g>
<!-- v_and_v -->
<g id="node3" class="node">
<title>v_and_v</title>
<polygon fill="lightgrey" stroke="black" points="138.86,-90.54 138.86,-105.46 120.75,-116 95.14,-116 77.03,-105.46 77.03,-90.54 95.14,-80 120.75,-80 138.86,-90.54"/>
<polygon fill="none" stroke="black" points="142.86,-88.24 142.86,-107.76 121.83,-120 94.06,-120 73.03,-107.76 73.03,-88.24 94.06,-76 121.83,-76 142.86,-88.24"/>
<polygon fill="none" stroke="black" points="146.85,-85.94 146.85,-110.06 122.91,-124 92.99,-124 69.04,-110.06 69.04,-85.94 92.99,-72 122.91,-72 146.85,-85.94"/>
<text text-anchor="middle" x="107.95" y="-94.3" font-family="Helvetica,sans-Serif" font-size="14.00">V&amp;V</text>
</g>
<!-- v_and_v&#45;&gt;merged -->
<g id="edge5" class="edge">
<title>v_and_v&#45;&gt;merged</title>
<path fill="none" stroke="black" d="M88.57,-74.44C80.03,-64.5 69.99,-52.81 61.34,-42.74"/>
<polygon fill="black" stroke="black" points="63.92,-40.38 54.75,-35.07 58.61,-44.94 63.92,-40.38"/>
</g>
<!-- feature -->
<g id="node5" class="node">
<title>feature</title>
<ellipse fill="lightgrey" stroke="black" cx="107.95" cy="-178" rx="38.19" ry="18"/>
<text text-anchor="middle" x="107.95" y="-174.3" font-family="Helvetica,sans-Serif" font-size="14.00">feature</text>
</g>
<!-- fork&#45;&gt;feature -->
<g id="edge3" class="edge">
<title>fork&#45;&gt;feature</title>
<path fill="none" stroke="black" d="M107.95,-231.7C107.95,-223.98 107.95,-214.71 107.95,-206.11"/>
<polygon fill="black" stroke="black" points="111.45,-206.1 107.95,-196.1 104.45,-206.1 111.45,-206.1"/>
</g>
<!-- feature&#45;&gt;v_and_v -->
<g id="edge4" class="edge">
<title>feature&#45;&gt;v_and_v</title>
<path fill="none" stroke="black" d="M107.95,-159.69C107.95,-152.21 107.95,-143.16 107.95,-134.36"/>
<polygon fill="black" stroke="black" points="111.45,-134.26 107.95,-124.26 104.45,-134.26 111.45,-134.26"/>
</g>
</g>
</svg>
