<?xml version="1.0" encoding="UTF-8" standalone="no"?>
<!DOCTYPE svg PUBLIC "-//W3C//DTD SVG 1.1//EN"
 "http://www.w3.org/Graphics/SVG/1.1/DTD/svg11.dtd">
<!-- Generated by graphviz version 2.44.0 (0)
 -->
<!-- Title: mom_pr Pages: 1 -->
<svg width="366pt" height="764pt"
 viewBox="0.00 0.00 366.04 764.00" xmlns="http://www.w3.org/2000/svg" xmlns:xlink="http://www.w3.org/1999/xlink">
<g id="graph0" class="graph" transform="scale(1 1) rotate(0) translate(4 760)">
<title>mom_pr</title>
<!-- start -->
<g id="node1" class="node">
<title>start</title>
<ellipse fill="lightgrey" stroke="black" cx="120.09" cy="-738" rx="27.9" ry="18"/>
<text text-anchor="middle" x="120.09" y="-734.3" font-family="Helvetica,sans-Serif" font-size="14.00">start</text>
</g>
<!-- coupler_init -->
<g id="node2" class="node">
<title>coupler_init</title>
<ellipse fill="lightgrey" stroke="black" cx="120.09" cy="-666" rx="55.79" ry="18"/>
<text text-anchor="middle" x="120.09" y="-662.3" font-family="Helvetica,sans-Serif" font-size="14.00">coupler_init</text>
</g>
<!-- start&#45;&gt;coupler_init -->
<g id="edge1" class="edge">
<title>start&#45;&gt;coupler_init</title>
<path fill="none" stroke="black" d="M120.09,-719.7C120.09,-711.98 120.09,-702.71 120.09,-694.11"/>
<polygon fill="black" stroke="black" points="123.59,-694.1 120.09,-684.1 116.59,-694.1 123.59,-694.1"/>
</g>
<!-- coupler_step -->
<g id="node3" class="node">
<title>coupler_step</title>
<ellipse fill="lightgrey" stroke="black" cx="120.09" cy="-378" rx="61.19" ry="18"/>
<text text-anchor="middle" x="120.09" y="-374.3" font-family="Helvetica,sans-Serif" font-size="14.00">coupler_step</text>
</g>
<!-- coupler_init&#45;&gt;coupler_step -->
<g id="edge2" class="edge">
<title>coupler_init&#45;&gt;coupler_step</title>
<path fill="none" stroke="black" d="M120.09,-647.97C120.09,-600.29 120.09,-465.18 120.09,-406.63"/>
<polygon fill="black" stroke="black" points="123.59,-406.31 120.09,-396.31 116.59,-406.31 123.59,-406.31"/>
</g>
<!-- ocean_init -->
<g id="node6" class="node">
<title>ocean_init</title>
<ellipse fill="lightgrey" stroke="black" cx="247.09" cy="-594" rx="50.89" ry="18"/>
<text text-anchor="middle" x="247.09" y="-590.3" font-family="Helvetica,sans-Serif" font-size="14.00">ocean_init</text>
</g>
<!-- coupler_init&#45;&gt;ocean_init -->
<g id="edge5" class="edge">
<title>coupler_init&#45;&gt;ocean_init</title>
<path fill="none" stroke="black" d="M147.03,-650.15C165.84,-639.78 191.16,-625.83 211.62,-614.55"/>
<polygon fill="black" stroke="black" points="213.57,-617.48 220.63,-609.58 210.19,-611.35 213.57,-617.48"/>
</g>
<!-- rotate_forcing -->
<g id="node10" class="node">
<title>rotate_forcing</title>
<ellipse fill="lightgrey" stroke="black" cx="74.09" cy="-306" rx="64.19" ry="18"/>
<text text-anchor="middle" x="74.09" y="-302.3" font-family="Helvetica,sans-Serif" font-size="14.00">rotate_forcing</text>
</g>
<!-- coupler_step&#45;&gt;rotate_forcing -->
<g id="edge11" class="edge">
<title>coupler_step&#45;&gt;rotate_forcing</title>
<path fill="none" stroke="black" d="M108.96,-360.05C103.48,-351.71 96.76,-341.49 90.69,-332.25"/>
<polygon fill="black" stroke="black" points="93.54,-330.22 85.13,-323.79 87.69,-334.07 93.54,-330.22"/>
</g>
<!-- coupler_step_end -->
<g id="node4" class="node">
<title>coupler_step_end</title>
<ellipse fill="lightgrey" stroke="black" cx="125.09" cy="-90" rx="80.69" ry="18"/>
<text text-anchor="middle" x="125.09" y="-86.3" font-family="Helvetica,sans-Serif" font-size="14.00">coupler_step_end</text>
</g>
<!-- coupler_step_end&#45;&gt;coupler_step -->
<g id="edge3" class="edge">
<title>coupler_step_end&#45;&gt;coupler_step</title>
<path fill="none" stroke="black" d="M138.66,-108.03C145.65,-117.91 153.46,-130.95 157.09,-144 178.59,-221.19 168.48,-246.78 147.09,-324 144.53,-333.26 140.27,-342.78 135.87,-351.16"/>
<polygon fill="black" stroke="black" points="132.73,-349.61 130.95,-360.05 138.85,-353 132.73,-349.61"/>
</g>
<!-- final -->
<g id="node5" class="node">
<title>final</title>
<ellipse fill="lightgrey" stroke="black" cx="125.09" cy="-18" rx="27" ry="18"/>
<text text-anchor="middle" x="125.09" y="-14.3" font-family="Helvetica,sans-Serif" font-size="14.00">final</text>
</g>
<!-- coupler_step_end&#45;&gt;final -->
<g id="edge4" class="edge">
<title>coupler_step_end&#45;&gt;final</title>
<path fill="none" stroke="black" d="M125.09,-71.7C125.09,-63.98 125.09,-54.71 125.09,-46.11"/>
<polygon fill="black" stroke="black" points="128.59,-46.1 125.09,-36.1 121.59,-46.1 128.59,-46.1"/>
</g>
<!-- std_init -->
<g id="node7" class="node">
<title>std_init</title>
<ellipse fill="lightgrey" stroke="black" cx="194.09" cy="-522" rx="38.19" ry="18"/>
<text text-anchor="middle" x="194.09" y="-518.3" font-family="Helvetica,sans-Serif" font-size="14.00">std_init</text>
</g>
<!-- ocean_init&#45;&gt;std_init -->
<g id="edge6" class="edge">
<title>ocean_init&#45;&gt;std_init</title>
<path fill="none" stroke="black" d="M234.53,-576.41C228,-567.78 219.88,-557.06 212.64,-547.5"/>
<polygon fill="black" stroke="black" points="215.39,-545.33 206.56,-539.47 209.81,-549.56 215.39,-545.33"/>
</g>
<!-- rotated_init -->
<g id="node8" class="node">
<title>rotated_init</title>
<ellipse fill="lightgrey" stroke="black" cx="304.09" cy="-522" rx="53.89" ry="18"/>
<text text-anchor="middle" x="304.09" y="-518.3" font-family="Helvetica,sans-Serif" font-size="14.00">rotated_init</text>
</g>
<!-- ocean_init&#45;&gt;rotated_init -->
<g id="edge7" class="edge">
<title>ocean_init&#45;&gt;rotated_init</title>
<path fill="none" stroke="black" d="M260.6,-576.41C267.63,-567.78 276.36,-557.06 284.15,-547.5"/>
<polygon fill="black" stroke="black" points="287.08,-549.43 290.68,-539.47 281.65,-545.01 287.08,-549.43"/>
</g>
<!-- finalize_init -->
<g id="node9" class="node">
<title>finalize_init</title>
<ellipse fill="lightgrey" stroke="black" cx="253.09" cy="-450" rx="53.89" ry="18"/>
<text text-anchor="middle" x="253.09" y="-446.3" font-family="Helvetica,sans-Serif" font-size="14.00">finalize_init</text>
</g>
<!-- std_init&#45;&gt;finalize_init -->
<g id="edge8" class="edge">
<title>std_init&#45;&gt;finalize_init</title>
<path fill="none" stroke="black" d="M207.48,-505.12C214.81,-496.42 224.06,-485.45 232.31,-475.66"/>
<polygon fill="black" stroke="black" points="235.17,-477.7 238.94,-467.8 229.81,-473.19 235.17,-477.7"/>
</g>
<!-- rotated_init&#45;&gt;finalize_init -->
<g id="edge9" class="edge">
<title>rotated_init&#45;&gt;finalize_init</title>
<path fill="none" stroke="black" d="M292.01,-504.41C285.87,-495.99 278.29,-485.58 271.45,-476.2"/>
<polygon fill="black" stroke="black" points="274.16,-473.98 265.45,-467.96 268.51,-478.1 274.16,-473.98"/>
</g>
<!-- finalize_init&#45;&gt;coupler_step -->
<g id="edge10" class="edge">
<title>finalize_init&#45;&gt;coupler_step</title>
<path fill="none" stroke="black" d="M225.54,-434.5C205.83,-424.12 179.08,-410.04 157.45,-398.66"/>
<polygon fill="black" stroke="black" points="159.01,-395.53 148.53,-393.97 155.75,-401.72 159.01,-395.53"/>
</g>
<!-- ocean_step -->
<g id="node11" class="node">
<title>ocean_step</title>
<ellipse fill="lightgrey" stroke="black" cx="74.09" cy="-234" rx="55.79" ry="18"/>
<text text-anchor="middle" x="74.09" y="-230.3" font-family="Helvetica,sans-Serif" font-size="14.00">ocean_step</text>
</g>
<!-- rotate_forcing&#45;&gt;ocean_step -->
<g id="edge12" class="edge">
<title>rotate_forcing&#45;&gt;ocean_step</title>
<path fill="none" stroke="black" d="M74.09,-287.7C74.09,-279.98 74.09,-270.71 74.09,-262.11"/>
<polygon fill="black" stroke="black" points="77.59,-262.1 74.09,-252.1 70.59,-262.1 77.59,-262.1"/>
</g>
<!-- derotate_forcing -->
<g id="node12" class="node">
<title>derotate_forcing</title>
<ellipse fill="lightgrey" stroke="black" cx="74.09" cy="-162" rx="74.19" ry="18"/>
<text text-anchor="middle" x="74.09" y="-158.3" font-family="Helvetica,sans-Serif" font-size="14.00">derotate_forcing</text>
</g>
<!-- ocean_step&#45;&gt;derotate_forcing -->
<g id="edge13" class="edge">
<title>ocean_step&#45;&gt;derotate_forcing</title>
<path fill="none" stroke="black" d="M74.09,-215.7C74.09,-207.98 74.09,-198.71 74.09,-190.11"/>
<polygon fill="black" stroke="black" points="77.59,-190.1 74.09,-180.1 70.59,-190.1 77.59,-190.1"/>
</g>
<!-- derotate_forcing&#45;&gt;coupler_step_end -->
<g id="edge14" class="edge">
<title>derotate_forcing&#45;&gt;coupler_step_end</title>
<path fill="none" stroke="black" d="M86.44,-144.05C92.49,-135.75 99.9,-125.58 106.6,-116.38"/>
<polygon fill="black" stroke="black" points="109.45,-118.42 112.51,-108.28 103.79,-114.3 109.45,-118.42"/>
</g>
</g>
</svg>
