<?xml version="1.0" encoding="UTF-8" standalone="no"?>
<!DOCTYPE svg PUBLIC "-//W3C//DTD SVG 1.1//EN"
 "http://www.w3.org/Graphics/SVG/1.1/DTD/svg11.dtd">
<!-- Generated by graphviz version 2.44.0 (0)
 -->
<!-- Title: testing Pages: 1 -->
<svg width="535pt" height="451pt"
 viewBox="0.00 0.00 535.00 450.74" xmlns="http://www.w3.org/2000/svg" xmlns:xlink="http://www.w3.org/1999/xlink">
<g id="graph0" class="graph" transform="scale(1 1) rotate(0) translate(4 446.74)">
<title>testing</title>
<text text-anchor="middle" x="487" y="-7.8" font-family="Times,serif" font-size="14.00">Verification</text>
<g id="clust5" class="cluster">
<title>cluster_build</title>
<polygon fill="transparent" stroke="black" points="74,-306 74,-381 440,-381 440,-306 74,-306"/>
<text text-anchor="middle" x="408" y="-365.8" font-family="Times,serif" font-size="14.00">Compile</text>
</g>
<g id="clust6" class="cluster">
<title>cluster_test</title>
<polygon fill="transparent" stroke="black" points="8,-159 8,-234 519,-234 519,-159 8,-159"/>
<text text-anchor="middle" x="485.5" y="-218.8" font-family="Times,serif" font-size="14.00">Run tests</text>
</g>
<!-- submit -->
<g id="node1" class="node">
<title>submit</title>
<ellipse fill="lightgrey" stroke="black" cx="250" cy="-415.87" rx="65.11" ry="26.74"/>
<text text-anchor="middle" x="250" y="-419.67" font-family="Helvetica,sans-Serif" font-size="14.00">Submit to CI</text>
<text text-anchor="middle" x="250" y="-404.67" font-family="Helvetica,sans-Serif" font-size="14.00">(Travis)</text>
</g>
<!-- build1 -->
<g id="node2" class="node">
<title>build1</title>
<ellipse fill="lightgrey" stroke="black" cx="379" cy="-332" rx="53.09" ry="18"/>
<text text-anchor="middle" x="379" y="-328.3" font-family="Helvetica,sans-Serif" font-size="14.00">Symmetric</text>
</g>
<!-- submit&#45;&gt;build1 -->
<g id="edge1" class="edge">
<title>submit&#45;&gt;build1</title>
<path fill="none" stroke="black" d="M292.14,-395.11C300.54,-390.75 309.18,-385.94 317,-381 329.08,-373.37 341.67,-363.93 352.33,-355.44"/>
<polygon fill="black" stroke="black" points="354.85,-357.91 360.42,-348.9 350.44,-352.47 354.85,-357.91"/>
</g>
<!-- build2 -->
<g id="node3" class="node">
<title>build2</title>
<ellipse fill="lightgrey" stroke="black" cx="250" cy="-332" rx="57.69" ry="18"/>
<text text-anchor="middle" x="250" y="-328.3" font-family="Helvetica,sans-Serif" font-size="14.00">Asymmetric</text>
</g>
<!-- submit&#45;&gt;build2 -->
<g id="edge2" class="edge">
<title>submit&#45;&gt;build2</title>
<path fill="none" stroke="black" d="M250,-388.97C250,-379.87 250,-369.63 250,-360.42"/>
<polygon fill="black" stroke="black" points="253.5,-360.21 250,-350.21 246.5,-360.21 253.5,-360.21"/>
</g>
<!-- build3 -->
<g id="node4" class="node">
<title>build3</title>
<ellipse fill="lightgrey" stroke="black" cx="128" cy="-332" rx="46.29" ry="18"/>
<text text-anchor="middle" x="128" y="-328.3" font-family="Helvetica,sans-Serif" font-size="14.00">OpenMP</text>
</g>
<!-- submit&#45;&gt;build3 -->
<g id="edge3" class="edge">
<title>submit&#45;&gt;build3</title>
<path fill="none" stroke="black" d="M207.63,-395.47C199.25,-391.08 190.68,-386.17 183,-381 172.16,-373.7 161.13,-364.49 151.82,-356.1"/>
<polygon fill="black" stroke="black" points="154.17,-353.5 144.45,-349.3 149.42,-358.65 154.17,-353.5"/>
</g>
<!-- build_verify -->
<g id="node5" class="node">
<title>build_verify</title>
<polygon fill="lightgrey" stroke="black" points="295,-278 205,-278 205,-242 295,-242 295,-278"/>
<text text-anchor="middle" x="250" y="-256.3" font-family="Helvetica,sans-Serif" font-size="14.00">Verify builds</text>
</g>
<!-- build1&#45;&gt;build_verify -->
<g id="edge4" class="edge">
<title>build1&#45;&gt;build_verify</title>
<path fill="none" stroke="black" d="M351.96,-316.33C334.15,-306.66 310.5,-293.83 290.47,-282.96"/>
<polygon fill="black" stroke="black" points="292.01,-279.82 281.55,-278.12 288.67,-285.97 292.01,-279.82"/>
</g>
<!-- build2&#45;&gt;build_verify -->
<g id="edge5" class="edge">
<title>build2&#45;&gt;build_verify</title>
<path fill="none" stroke="black" d="M250,-313.7C250,-305.98 250,-296.71 250,-288.11"/>
<polygon fill="black" stroke="black" points="253.5,-288.1 250,-278.1 246.5,-288.1 253.5,-288.1"/>
</g>
<!-- build3&#45;&gt;build_verify -->
<g id="edge6" class="edge">
<title>build3&#45;&gt;build_verify</title>
<path fill="none" stroke="black" d="M152.98,-316.67C169.83,-307 192.4,-294.05 211.52,-283.08"/>
<polygon fill="black" stroke="black" points="213.38,-286.04 220.32,-278.03 209.9,-279.97 213.38,-286.04"/>
</g>
<!-- test1 -->
<g id="node6" class="node">
<title>test1</title>
<ellipse fill="lightgrey" stroke="black" cx="448" cy="-185" rx="63.09" ry="18"/>
<text text-anchor="middle" x="448" y="-181.3" font-family="Helvetica,sans-Serif" font-size="14.00">Grid Memory</text>
</g>
<!-- build_verify&#45;&gt;test1 -->
<g id="edge7" class="edge">
<title>build_verify&#45;&gt;test1</title>
<path fill="none" stroke="black" d="M295.27,-254.38C319.84,-250.81 350.34,-244.61 376,-234 391.57,-227.57 407.31,-217.56 420.09,-208.34"/>
<polygon fill="black" stroke="black" points="422.49,-210.92 428.42,-202.15 418.31,-205.31 422.49,-210.92"/>
</g>
<!-- test2 -->
<g id="node7" class="node">
<title>test2</title>
<ellipse fill="lightgrey" stroke="black" cx="310" cy="-185" rx="57.39" ry="18"/>
<text text-anchor="middle" x="310" y="-181.3" font-family="Helvetica,sans-Serif" font-size="14.00">Dimensions</text>
</g>
<!-- build_verify&#45;&gt;test2 -->
<g id="edge8" class="edge">
<title>build_verify&#45;&gt;test2</title>
<path fill="none" stroke="black" d="M264.22,-241.7C271.88,-232.38 281.45,-220.74 289.86,-210.5"/>
<polygon fill="black" stroke="black" points="292.65,-212.62 296.3,-202.67 287.24,-208.18 292.65,-212.62"/>
</g>
<!-- test3 -->
<g id="node8" class="node">
<title>test3</title>
<ellipse fill="lightgrey" stroke="black" cx="191" cy="-185" rx="43.59" ry="18"/>
<text text-anchor="middle" x="191" y="-181.3" font-family="Helvetica,sans-Serif" font-size="14.00">Rotation</text>
</g>
<!-- build_verify&#45;&gt;test3 -->
<g id="edge9" class="edge">
<title>build_verify&#45;&gt;test3</title>
<path fill="none" stroke="black" d="M236.02,-241.7C228.38,-232.25 218.81,-220.4 210.45,-210.07"/>
<polygon fill="black" stroke="black" points="213.08,-207.75 204.07,-202.18 207.64,-212.15 213.08,-207.75"/>
</g>
<!-- test4 -->
<g id="node9" class="node">
<title>test4</title>
<ellipse fill="lightgrey" stroke="black" cx="73" cy="-185" rx="56.59" ry="18"/>
<text text-anchor="middle" x="73" y="-181.3" font-family="Helvetica,sans-Serif" font-size="14.00">Initialization</text>
</g>
<!-- build_verify&#45;&gt;test4 -->
<g id="edge10" class="edge">
<title>build_verify&#45;&gt;test4</title>
<path fill="none" stroke="black" d="M204.74,-253.3C183.78,-249.57 158.94,-243.55 138,-234 123.93,-227.58 109.92,-217.79 98.54,-208.72"/>
<polygon fill="black" stroke="black" points="100.69,-205.96 90.74,-202.3 96.24,-211.36 100.69,-205.96"/>
</g>
<!-- verify_results -->
<g id="node10" class="node">
<title>verify_results</title>
<polygon fill="lightgrey" stroke="black" points="297.5,-131 202.5,-131 202.5,-95 297.5,-95 297.5,-131"/>
<text text-anchor="middle" x="250" y="-109.3" font-family="Helvetica,sans-Serif" font-size="14.00">Verify results</text>
</g>
<!-- test1&#45;&gt;verify_results -->
<g id="edge11" class="edge">
<title>test1&#45;&gt;verify_results</title>
<path fill="none" stroke="black" d="M409.82,-170.5C380.67,-160.2 340.04,-145.83 307.04,-134.16"/>
<polygon fill="black" stroke="black" points="308.1,-130.83 297.5,-130.79 305.77,-137.43 308.1,-130.83"/>
</g>
<!-- test2&#45;&gt;verify_results -->
<g id="edge12" class="edge">
<title>test2&#45;&gt;verify_results</title>
<path fill="none" stroke="black" d="M295.78,-167.41C288.53,-158.95 279.55,-148.47 271.47,-139.05"/>
<polygon fill="black" stroke="black" points="274.12,-136.76 264.95,-131.45 268.8,-141.32 274.12,-136.76"/>
</g>
<!-- test3&#45;&gt;verify_results -->
<g id="edge13" class="edge">
<title>test3&#45;&gt;verify_results</title>
<path fill="none" stroke="black" d="M204.68,-167.76C211.92,-159.18 220.95,-148.46 229.05,-138.86"/>
<polygon fill="black" stroke="black" points="231.8,-141.03 235.57,-131.12 226.45,-136.51 231.8,-141.03"/>
</g>
<!-- test4&#45;&gt;verify_results -->
<g id="edge14" class="edge">
<title>test4&#45;&gt;verify_results</title>
<path fill="none" stroke="black" d="M107.13,-170.5C132.67,-160.4 168.08,-146.4 197.25,-134.86"/>
<polygon fill="black" stroke="black" points="198.87,-137.98 206.88,-131.05 196.3,-131.47 198.87,-137.98"/>
</g>
<!-- validate -->
<g id="node11" class="node">
<title>validate</title>
<ellipse fill="lightgrey" stroke="black" cx="250" cy="-41" rx="71.49" ry="18"/>
<text text-anchor="middle" x="250" y="-37.3" font-family="Helvetica,sans-Serif" font-size="14.00">Local validation</text>
</g>
<!-- verify_results&#45;&gt;validate -->
<g id="edge15" class="edge">
<title>verify_results&#45;&gt;validate</title>
<path fill="none" stroke="black" d="M250,-94.7C250,-86.98 250,-77.71 250,-69.11"/>
<polygon fill="black" stroke="black" points="253.5,-69.1 250,-59.1 246.5,-69.1 253.5,-69.1"/>
</g>
</g>
</svg>
