<?xml version="1.0" encoding="UTF-8" standalone="no"?>
<!DOCTYPE svg PUBLIC "-//W3C//DTD SVG 1.1//EN"
 "http://www.w3.org/Graphics/SVG/1.1/DTD/svg11.dtd">
<!-- Generated by graphviz version 2.44.0 (0)
 -->
<!-- Title: mom_pr Pages: 1 -->
<svg width="156pt" height="348pt"
 viewBox="0.00 0.00 155.55 348.00" xmlns="http://www.w3.org/2000/svg" xmlns:xlink="http://www.w3.org/1999/xlink">
<g id="graph0" class="graph" transform="scale(1 1) rotate(0) translate(4 344)">
<title>mom_pr</title>
<!-- master -->
<g id="node1" class="node">
<title>master</title>
<ellipse fill="lightgrey" stroke="black" cx="41.6" cy="-322" rx="41.69" ry="18"/>
<text text-anchor="middle" x="41.6" y="-318.3" font-family="Helvetica,sans-Serif" font-size="14.00">dev/gfdl</text>
</g>
<!-- merged -->
<g id="node2" class="node">
<title>merged</title>
<ellipse fill="lightgrey" stroke="black" cx="41.6" cy="-18" rx="40.89" ry="18"/>
<text text-anchor="middle" x="41.6" y="-14.3" font-family="Helvetica,sans-Serif" font-size="14.00">merged</text>
</g>
<!-- master&#45;&gt;merged -->
<g id="edge1" class="edge">
<title>master&#45;&gt;merged</title>
<path fill="none" stroke="black" d="M41.6,-303.9C41.6,-253.87 41.6,-107.5 41.6,-46.34"/>
<polygon fill="black" stroke="black" points="45.1,-46.29 41.6,-36.29 38.1,-46.29 45.1,-46.29"/>
</g>
<!-- fork -->
<g id="node4" class="node">
<title>fork</title>
<ellipse fill="lightgrey" stroke="black" cx="108.6" cy="-250" rx="27" ry="18"/>
<text text-anchor="middle" x="108.6" y="-246.3" font-family="Helvetica,sans-Serif" font-size="14.00">fork</text>
</g>
<!-- master&#45;&gt;fork -->
<g id="edge2" class="edge">
<title>master&#45;&gt;fork</title>
<path fill="none" stroke="black" d="M56.8,-305.12C65.78,-295.73 77.3,-283.7 87.19,-273.36"/>
<polygon fill="black" stroke="black" points="89.98,-275.51 94.37,-265.86 84.93,-270.67 89.98,-275.51"/>
</g>
<!-- v_and_v -->
<g id="node3" class="node">
<title>v_and_v</title>
<polygon fill="lightgrey" stroke="black" points="139.51,-90.54 139.51,-105.46 121.4,-116 95.79,-116 77.68,-105.46 77.68,-90.54 95.79,-80 121.4,-80 139.51,-90.54"/>
<polygon fill="none" stroke="black" points="143.51,-88.24 143.51,-107.76 122.48,-120 94.71,-120 73.68,-107.76 73.68,-88.24 94.71,-76 122.48,-76 143.51,-88.24"/>
<polygon fill="none" stroke="black" points="147.5,-85.94 147.5,-110.06 123.56,-124 93.64,-124 69.69,-110.06 69.69,-85.94 93.64,-72 123.56,-72 147.5,-85.94"/>
<text text-anchor="middle" x="108.6" y="-94.3" font-family="Helvetica,sans-Serif" font-size="14.00">V&amp;V</text>
</g>
<!-- v_and_v&#45;&gt;merged -->
<g id="edge5" class="edge">
<title>v_and_v&#45;&gt;merged</title>
<path fill="none" stroke="black" d="M89.22,-74.44C80.68,-64.5 70.64,-52.81 61.99,-42.74"/>
<polygon fill="black" stroke="black" points="64.57,-40.38 55.4,-35.07 59.26,-44.94 64.57,-40.38"/>
</g>
<!-- feature -->
<g id="node5" class="node">
<title>feature</title>
<ellipse fill="lightgrey" stroke="black" cx="108.6" cy="-178" rx="38.19" ry="18"/>
<text text-anchor="middle" x="108.6" y="-174.3" font-family="Helvetica,sans-Serif" font-size="14.00">feature</text>
</g>
<!-- fork&#45;&gt;feature -->
<g id="edge3" class="edge">
<title>fork&#45;&gt;feature</title>
<path fill="none" stroke="black" d="M108.6,-231.7C108.6,-223.98 108.6,-214.71 108.6,-206.11"/>
<polygon fill="black" stroke="black" points="112.1,-206.1 108.6,-196.1 105.1,-206.1 112.1,-206.1"/>
</g>
<!-- feature&#45;&gt;v_and_v -->
<g id="edge4" class="edge">
<title>feature&#45;&gt;v_and_v</title>
<path fill="none" stroke="black" d="M108.6,-159.69C108.6,-152.21 108.6,-143.16 108.6,-134.36"/>
<polygon fill="black" stroke="black" points="112.1,-134.26 108.6,-124.26 105.1,-134.26 112.1,-134.26"/>
</g>
</g>
</svg>
