<?xml version="1.0" encoding="UTF-8" standalone="no"?>
<!DOCTYPE svg PUBLIC "-//W3C//DTD SVG 1.1//EN"
 "http://www.w3.org/Graphics/SVG/1.1/DTD/svg11.dtd">
<!-- Generated by graphviz version 2.44.0 (0)
 -->
<!-- Title: rotation Pages: 1 -->
<svg width="658pt" height="44pt"
 viewBox="0.00 0.00 658.00 44.00" xmlns="http://www.w3.org/2000/svg" xmlns:xlink="http://www.w3.org/1999/xlink">
<g id="graph0" class="graph" transform="scale(1 1) rotate(0) translate(4 40)">
<title>rotation</title>
<!-- mem1 -->
<g id="node1" class="node">
<title>mem1</title>
<polygon fill="lightgrey" stroke="transparent" points="316,-36 0,-36 0,0 316,0 316,-36"/>
<polygon fill="#fb6a4a" stroke="transparent" points="8,-7 8,-28 33,-28 33,-7 8,-7"/>
<polygon fill="none" stroke="black" points="8,-7 8,-28 33,-28 33,-7 8,-7"/>
<text text-anchor="start" x="11" y="-13.8" font-family="Helvetica,sans-Serif" font-size="14.00" fill="white">0,0</text>
<polygon fill="#ef3b2c" stroke="transparent" points="33,-7 33,-28 58,-28 58,-7 33,-7"/>
<polygon fill="none" stroke="black" points="33,-7 33,-28 58,-28 58,-7 33,-7"/>
<text text-anchor="start" x="36" y="-13.8" font-family="Helvetica,sans-Serif" font-size="14.00" fill="white">0,1</text>
<polygon fill="#cb181d" stroke="transparent" points="58,-7 58,-28 83,-28 83,-7 58,-7"/>
<polygon fill="none" stroke="black" points="58,-7 58,-28 83,-28 83,-7 58,-7"/>
<text text-anchor="start" x="61" y="-13.8" font-family="Helvetica,sans-Serif" font-size="14.00" fill="white">0,2</text>
<polygon fill="#99000d" stroke="transparent" points="83,-7 83,-28 108,-28 108,-7 83,-7"/>
<polygon fill="none" stroke="black" points="83,-7 83,-28 108,-28 108,-7 83,-7"/>
<text text-anchor="start" x="86" y="-13.8" font-family="Helvetica,sans-Serif" font-size="14.00" fill="white">0,3</text>
<polygon fill="#74c476" stroke="transparent" points="108,-7 108,-28 133,-28 133,-7 108,-7"/>
<polygon fill="none" stroke="black" points="108,-7 108,-28 133,-28 133,-7 108,-7"/>
<text text-anchor="start" x="111" y="-13.8" font-family="Helvetica,sans-Serif" font-size="14.00" fill="white">1,0</text>
<polygon fill="#41ab5d" stroke="transparent" points="133,-7 133,-28 158,-28 158,-7 133,-7"/>
<polygon fill="none" stroke="black" points="133,-7 133,-28 158,-28 158,-7 133,-7"/>
<text text-anchor="start" x="136" y="-13.8" font-family="Helvetica,sans-Serif" font-size="14.00" fill="white">1,1</text>
<polygon fill="#238b45" stroke="transparent" points="158,-7 158,-28 183,-28 183,-7 158,-7"/>
<polygon fill="none" stroke="black" points="158,-7 158,-28 183,-28 183,-7 158,-7"/>
<text text-anchor="start" x="161" y="-13.8" font-family="Helvetica,sans-Serif" font-size="14.00" fill="white">1,2</text>
<polygon fill="#005a32" stroke="transparent" points="183,-7 183,-28 208,-28 208,-7 183,-7"/>
<polygon fill="none" stroke="black" points="183,-7 183,-28 208,-28 208,-7 183,-7"/>
<text text-anchor="start" x="186" y="-13.8" font-family="Helvetica,sans-Serif" font-size="14.00" fill="white">1,3</text>
<polygon fill="#6baed6" stroke="transparent" points="208,-7 208,-28 233,-28 233,-7 208,-7"/>
<polygon fill="none" stroke="black" points="208,-7 208,-28 233,-28 233,-7 208,-7"/>
<text text-anchor="start" x="211" y="-13.8" font-family="Helvetica,sans-Serif" font-size="14.00" fill="white">2,0</text>
<polygon fill="#4292c6" stroke="transparent" points="233,-7 233,-28 258,-28 258,-7 233,-7"/>
<polygon fill="none" stroke="black" points="233,-7 233,-28 258,-28 258,-7 233,-7"/>
<text text-anchor="start" x="236" y="-13.8" font-family="Helvetica,sans-Serif" font-size="14.00" fill="white">2,1</text>
<polygon fill="#2171b5" stroke="transparent" points="258,-7 258,-28 283,-28 283,-7 258,-7"/>
<polygon fill="none" stroke="black" points="258,-7 258,-28 283,-28 283,-7 258,-7"/>
<text text-anchor="start" x="261" y="-13.8" font-family="Helvetica,sans-Serif" font-size="14.00" fill="white">2,2</text>
<polygon fill="#084594" stroke="transparent" points="283,-7 283,-28 308,-28 308,-7 283,-7"/>
<polygon fill="none" stroke="black" points="283,-7 283,-28 308,-28 308,-7 283,-7"/>
<text text-anchor="start" x="286" y="-13.8" font-family="Helvetica,sans-Serif" font-size="14.00" fill="white">2,3</text>
</g>
<!-- mem2 -->
<g id="node2" class="node">
<title>mem2</title>
<polygon fill="lightgrey" stroke="transparent" points="650,-36 334,-36 334,0 650,0 650,-36"/>
<polygon fill="#6baed6" stroke="transparent" points="342,-7 342,-28 367,-28 367,-7 342,-7"/>
<polygon fill="none" stroke="black" points="342,-7 342,-28 367,-28 367,-7 342,-7"/>
<text text-anchor="start" x="345" y="-13.8" font-family="Helvetica,sans-Serif" font-size="14.00" fill="white">0,0</text>
<polygon fill="#74c476" stroke="transparent" points="367,-7 367,-28 392,-28 392,-7 367,-7"/>
<polygon fill="none" stroke="black" points="367,-7 367,-28 392,-28 392,-7 367,-7"/>
<text text-anchor="start" x="370" y="-13.8" font-family="Helvetica,sans-Serif" font-size="14.00" fill="white">0,1</text>
<polygon fill="#fb6a4a" stroke="transparent" points="392,-7 392,-28 417,-28 417,-7 392,-7"/>
<polygon fill="none" stroke="black" points="392,-7 392,-28 417,-28 417,-7 392,-7"/>
<text text-anchor="start" x="395" y="-13.8" font-family="Helvetica,sans-Serif" font-size="14.00" fill="white">0,2</text>
<polygon fill="#4292c6" stroke="transparent" points="417,-7 417,-28 442,-28 442,-7 417,-7"/>
<polygon fill="none" stroke="black" points="417,-7 417,-28 442,-28 442,-7 417,-7"/>
<text text-anchor="start" x="420" y="-13.8" font-family="Helvetica,sans-Serif" font-size="14.00" fill="white">1,0</text>
<polygon fill="#41ab5d" stroke="transparent" points="442,-7 442,-28 467,-28 467,-7 442,-7"/>
<polygon fill="none" stroke="black" points="442,-7 442,-28 467,-28 467,-7 442,-7"/>
<text text-anchor="start" x="445" y="-13.8" font-family="Helvetica,sans-Serif" font-size="14.00" fill="white">1,1</text>
<polygon fill="#ef3b2c" stroke="transparent" points="467,-7 467,-28 492,-28 492,-7 467,-7"/>
<polygon fill="none" stroke="black" points="467,-7 467,-28 492,-28 492,-7 467,-7"/>
<text text-anchor="start" x="470" y="-13.8" font-family="Helvetica,sans-Serif" font-size="14.00" fill="white">1,2</text>
<polygon fill="#2171b5" stroke="transparent" points="492,-7 492,-28 517,-28 517,-7 492,-7"/>
<polygon fill="none" stroke="black" points="492,-7 492,-28 517,-28 517,-7 492,-7"/>
<text text-anchor="start" x="495" y="-13.8" font-family="Helvetica,sans-Serif" font-size="14.00" fill="white">2,0</text>
<polygon fill="#238b45" stroke="transparent" points="517,-7 517,-28 542,-28 542,-7 517,-7"/>
<polygon fill="none" stroke="black" points="517,-7 517,-28 542,-28 542,-7 517,-7"/>
<text text-anchor="start" x="520" y="-13.8" font-family="Helvetica,sans-Serif" font-size="14.00" fill="white">2,1</text>
<polygon fill="#cb181d" stroke="transparent" points="542,-7 542,-28 567,-28 567,-7 542,-7"/>
<polygon fill="none" stroke="black" points="542,-7 542,-28 567,-28 567,-7 542,-7"/>
<text text-anchor="start" x="545" y="-13.8" font-family="Helvetica,sans-Serif" font-size="14.00" fill="white">2,2</text>
<polygon fill="#084594" stroke="transparent" points="567,-7 567,-28 592,-28 592,-7 567,-7"/>
<polygon fill="none" stroke="black" points="567,-7 567,-28 592,-28 592,-7 567,-7"/>
<text text-anchor="start" x="570" y="-13.8" font-family="Helvetica,sans-Serif" font-size="14.00" fill="white">3,0</text>
<polygon fill="#005a32" stroke="transparent" points="592,-7 592,-28 617,-28 617,-7 592,-7"/>
<polygon fill="none" stroke="black" points="592,-7 592,-28 617,-28 617,-7 592,-7"/>
<text text-anchor="start" x="595" y="-13.8" font-family="Helvetica,sans-Serif" font-size="14.00" fill="white">3,1</text>
<polygon fill="#99000d" stroke="transparent" points="617,-7 617,-28 642,-28 642,-7 617,-7"/>
<polygon fill="none" stroke="black" points="617,-7 617,-28 642,-28 642,-7 617,-7"/>
<text text-anchor="start" x="620" y="-13.8" font-family="Helvetica,sans-Serif" font-size="14.00" fill="white">3,2</text>
</g>
</g>
</svg>
