<?xml version="1.0" encoding="UTF-8" standalone="no"?>
<!DOCTYPE svg PUBLIC "-//W3C//DTD SVG 1.1//EN"
 "http://www.w3.org/Graphics/SVG/1.1/DTD/svg11.dtd">
<!-- Generated by graphviz version 2.44.0 (0)
 -->
<!-- Title: stencil Pages: 1 -->
<svg width="242pt" height="216pt"
 viewBox="0.00 0.00 242.50 216.49" xmlns="http://www.w3.org/2000/svg" xmlns:xlink="http://www.w3.org/1999/xlink">
<g id="graph0" class="graph" transform="scale(1 1) rotate(0) translate(4 212.49)">
<title>stencil</title>
<!-- 00 -->
<g id="node1" class="node">
<title>00</title>
<ellipse fill="#fb6a4a" stroke="black" cx="22.75" cy="-22.75" rx="23" ry="23"/>
<text text-anchor="middle" x="22.75" y="-19.05" font-family="Helvetica,sans-Serif" font-size="14.00" fill="white">0,0</text>
</g>
<!-- 01 -->
<g id="node2" class="node">
<title>01</title>
<ellipse fill="#ef3b2c" stroke="black" cx="85.75" cy="-22.75" rx="23" ry="23"/>
<text text-anchor="middle" x="85.75" y="-19.05" font-family="Helvetica,sans-Serif" font-size="14.00" fill="white">0,1</text>
</g>
<!-- 00&#45;&#45;01 -->
<g id="edge7" class="edge">
<title>00&#45;&#45;01</title>
<path fill="none" stroke="black" d="M45.88,-22.75C51.49,-22.75 57.09,-22.75 62.7,-22.75"/>
</g>
<!-- 02 -->
<g id="node3" class="node">
<title>02</title>
<ellipse fill="#cb181d" stroke="black" cx="148.75" cy="-22.75" rx="23" ry="23"/>
<text text-anchor="middle" x="148.75" y="-19.05" font-family="Helvetica,sans-Serif" font-size="14.00" fill="white">0,2</text>
</g>
<!-- 01&#45;&#45;02 -->
<g id="edge8" class="edge">
<title>01&#45;&#45;02</title>
<path fill="none" stroke="black" d="M108.88,-22.75C114.49,-22.75 120.09,-22.75 125.7,-22.75"/>
</g>
<!-- 03 -->
<g id="node4" class="node">
<title>03</title>
<ellipse fill="#99000d" stroke="black" cx="211.75" cy="-22.75" rx="23" ry="23"/>
<text text-anchor="middle" x="211.75" y="-19.05" font-family="Helvetica,sans-Serif" font-size="14.00" fill="white">0,3</text>
</g>
<!-- 02&#45;&#45;03 -->
<g id="edge9" class="edge">
<title>02&#45;&#45;03</title>
<path fill="none" stroke="black" d="M171.88,-22.75C177.49,-22.75 183.09,-22.75 188.7,-22.75"/>
</g>
<!-- 10 -->
<g id="node5" class="node">
<title>10</title>
<ellipse fill="#74c476" stroke="black" cx="22.75" cy="-104.24" rx="23" ry="23"/>
<text text-anchor="middle" x="22.75" y="-100.54" font-family="Helvetica,sans-Serif" font-size="14.00" fill="white">1,0</text>
</g>
<!-- 10&#45;&#45;00 -->
<g id="edge11" class="edge">
<title>10&#45;&#45;00</title>
<path fill="none" stroke="black" d="M22.75,-81.1C22.75,-69.98 22.75,-56.56 22.75,-45.5"/>
</g>
<!-- 11 -->
<g id="node6" class="node">
<title>11</title>
<ellipse fill="#41ab5d" stroke="black" cx="85.75" cy="-104.24" rx="23" ry="23"/>
<text text-anchor="middle" x="85.75" y="-100.54" font-family="Helvetica,sans-Serif" font-size="14.00" fill="white">1,1</text>
</g>
<!-- 10&#45;&#45;11 -->
<g id="edge4" class="edge">
<title>10&#45;&#45;11</title>
<path fill="none" stroke="black" d="M45.88,-104.24C51.49,-104.24 57.09,-104.24 62.7,-104.24"/>
</g>
<!-- 11&#45;&#45;01 -->
<g id="edge13" class="edge">
<title>11&#45;&#45;01</title>
<path fill="none" stroke="black" d="M85.75,-81.1C85.75,-69.98 85.75,-56.56 85.75,-45.5"/>
</g>
<!-- 12 -->
<g id="node7" class="node">
<title>12</title>
<ellipse fill="#238b45" stroke="black" cx="148.75" cy="-104.24" rx="23" ry="23"/>
<text text-anchor="middle" x="148.75" y="-100.54" font-family="Helvetica,sans-Serif" font-size="14.00" fill="white">1,2</text>
</g>
<!-- 11&#45;&#45;12 -->
<g id="edge5" class="edge">
<title>11&#45;&#45;12</title>
<path fill="none" stroke="black" d="M108.88,-104.24C114.49,-104.24 120.09,-104.24 125.7,-104.24"/>
</g>
<!-- 12&#45;&#45;02 -->
<g id="edge15" class="edge">
<title>12&#45;&#45;02</title>
<path fill="none" stroke="black" d="M148.75,-81.1C148.75,-69.98 148.75,-56.56 148.75,-45.5"/>
</g>
<!-- 13 -->
<g id="node8" class="node">
<title>13</title>
<ellipse fill="#005a32" stroke="black" cx="211.75" cy="-104.24" rx="23" ry="23"/>
<text text-anchor="middle" x="211.75" y="-100.54" font-family="Helvetica,sans-Serif" font-size="14.00" fill="white">1,3</text>
</g>
<!-- 12&#45;&#45;13 -->
<g id="edge6" class="edge">
<title>12&#45;&#45;13</title>
<path fill="none" stroke="black" d="M171.88,-104.24C177.49,-104.24 183.09,-104.24 188.7,-104.24"/>
</g>
<!-- 13&#45;&#45;03 -->
<g id="edge17" class="edge">
<title>13&#45;&#45;03</title>
<path fill="none" stroke="black" d="M211.75,-81.1C211.75,-69.98 211.75,-56.56 211.75,-45.5"/>
</g>
<!-- 20 -->
<g id="node9" class="node">
<title>20</title>
<ellipse fill="#6baed6" stroke="black" cx="22.75" cy="-185.74" rx="23" ry="23"/>
<text text-anchor="middle" x="22.75" y="-182.04" font-family="Helvetica,sans-Serif" font-size="14.00" fill="white">2,0</text>
</g>
<!-- 20&#45;&#45;10 -->
<g id="edge10" class="edge">
<title>20&#45;&#45;10</title>
<path fill="none" stroke="black" d="M22.75,-162.6C22.75,-151.48 22.75,-138.06 22.75,-126.99"/>
</g>
<!-- 21 -->
<g id="node10" class="node">
<title>21</title>
<ellipse fill="#4292c6" stroke="black" cx="85.75" cy="-185.74" rx="23" ry="23"/>
<text text-anchor="middle" x="85.75" y="-182.04" font-family="Helvetica,sans-Serif" font-size="14.00" fill="white">2,1</text>
</g>
<!-- 20&#45;&#45;21 -->
<g id="edge1" class="edge">
<title>20&#45;&#45;21</title>
<path fill="none" stroke="black" d="M45.88,-185.74C51.49,-185.74 57.09,-185.74 62.7,-185.74"/>
</g>
<!-- 21&#45;&#45;11 -->
<g id="edge12" class="edge">
<title>21&#45;&#45;11</title>
<path fill="none" stroke="black" d="M85.75,-162.6C85.75,-151.48 85.75,-138.06 85.75,-126.99"/>
</g>
<!-- 22 -->
<g id="node11" class="node">
<title>22</title>
<ellipse fill="#2171b5" stroke="black" cx="148.75" cy="-185.74" rx="23" ry="23"/>
<text text-anchor="middle" x="148.75" y="-182.04" font-family="Helvetica,sans-Serif" font-size="14.00" fill="white">2,2</text>
</g>
<!-- 21&#45;&#45;22 -->
<g id="edge2" class="edge">
<title>21&#45;&#45;22</title>
<path fill="none" stroke="black" d="M108.88,-185.74C114.49,-185.74 120.09,-185.74 125.7,-185.74"/>
</g>
<!-- 22&#45;&#45;12 -->
<g id="edge14" class="edge">
<title>22&#45;&#45;12</title>
<path fill="none" stroke="black" d="M148.75,-162.6C148.75,-151.48 148.75,-138.06 148.75,-126.99"/>
</g>
<!-- 23 -->
<g id="node12" class="node">
<title>23</title>
<ellipse fill="#084594" stroke="black" cx="211.75" cy="-185.74" rx="23" ry="23"/>
<text text-anchor="middle" x="211.75" y="-182.04" font-family="Helvetica,sans-Serif" font-size="14.00" fill="white">2,3</text>
</g>
<!-- 22&#45;&#45;23 -->
<g id="edge3" class="edge">
<title>22&#45;&#45;23</title>
<path fill="none" stroke="black" d="M171.88,-185.74C177.49,-185.74 183.09,-185.74 188.7,-185.74"/>
</g>
<!-- 23&#45;&#45;13 -->
<g id="edge16" class="edge">
<title>23&#45;&#45;13</title>
<path fill="none" stroke="black" d="M211.75,-162.6C211.75,-151.48 211.75,-138.06 211.75,-126.99"/>
</g>
</g>
</svg>
